<?xml version="1.0" encoding="utf-8"?>
<!-- Generator: Adobe Illustrator 22.0.1, SVG Export Plug-In . SVG Version: 6.00 Build 0)  -->
<svg version="1.1" id="Layer_1" xmlns="http://www.w3.org/2000/svg" xmlns:xlink="http://www.w3.org/1999/xlink" x="0px" y="0px"
	 viewBox="0 0 406 306" style="enable-background:new 0 0 406 306;" xml:space="preserve">
<style type="text/css">
	.st0{opacity:0.48;fill:#68E1FD;enable-background:new    ;}
	.st1{opacity:0.18;fill:#68E1FD;enable-background:new    ;}
	.st2{fill:#68E1FD;}
	.st3{fill:url(#SVGID_1_);}
	.st4{fill:url(#SVGID_2_);}
	.st5{fill:#FFDAD2;}
	.st6{fill:#3F3D56;}
	.st7{fill:url(#SVGID_3_);}
	.st8{fill:#FFFFFF;}
	.st9{fill:none;stroke:#FFFFFF;stroke-width:3.3;stroke-miterlimit:10;}
	.st10{fill:url(#SVGID_4_);}
	.st11{fill:url(#SVGID_5_);}
	.st12{fill:url(#SVGID_6_);}
	.st13{fill:url(#SVGID_7_);}
	.st14{opacity:0.51;fill:#FFFFFF;enable-background:new    ;}
</style>
<title>Web Developer</title>
<path class="st0" d="M57.1,11.3h324.5c4.6,0,8.2,3.7,8.2,8.2v201.9c0,4.6-3.7,8.2-8.2,8.2H57.1c-4.6,0-8.2-3.7-8.2-8.2V19.6
	C48.9,15,52.6,11.3,57.1,11.3z"/>
<path class="st1" d="M383.1,245.7c-0.2,7.2-1.9,14.4-5.9,20.4c-5,7.5-13.2,12.1-21.2,16.4l-22.5,12.4c-9.9,5.4-20.3,11-31.5,11.1
	c-8,0.1-15.6-2.5-23.3-4.7c-35.7-10.3-73.4-11.8-110.3-9.2c-18.9,1.3-37.7,3.7-56.5,6.5c-15,2.2-33,9.6-46.5,0.9
	c-14.7-9.6-23.8-25.1-32.1-40.1c-7.2-13.1-14.6-26.4-17-41.2c-3.7-22.8,5.1-46.2,18.9-64.7c4.1-5.5,8.7-10.8,13.6-15.6v83.6
	c0,4.6,3.7,8.3,8.2,8.3h324.5C382.8,235,383.3,240.3,383.1,245.7z"/>
<path class="st1" d="M261.9,11.3h-86.8c3.3-2.5,6.8-4.6,10.6-6.2c6.9-3,14.3-4.3,21.8-4.9C226.2-1.1,245.1,3,261.9,11.3z"/>
<path class="st2" d="M182.5,202.2c0.8,1.1,1.9,2.1,3,2.9c1.7,0.9,3.6,1.5,5.5,1.6l29.4,4.4c0.3,0,0.6,0.1,0.8,0.3
	c0.3,0.4,0.5,0.8,0.4,1.3c0.1,5.5-0.6,11-2.2,16.3c-0.1,0.4-0.3,0.8-0.6,1.1c-0.4,0.3-0.9,0.4-1.3,0.4c-9.9,0.8-19.8,0.6-29.7,0.3
	c-1.7,0-3.3-0.2-5-0.5c-2.8-0.8-5-2.7-7.1-4.6c-4.5-4.2-22.5-20.8-23.6-23.1c-1.5-3.2-2.6-6.6-3.5-10.1c-0.9-3.3,5.8-3.7,5.7-7.2
	c-0.1-2.4,0.2-4.8,0.8-7.1c0.5-2,1.5-3.9,2.9-5.4c1-0.9-0.6-7.2,0.8-7.2c1.6,5.5,8.9,16.6,12.1,21.3
	C174.6,192.3,178.4,197.4,182.5,202.2z"/>
<linearGradient id="SVGID_1_" gradientUnits="userSpaceOnUse" x1="192.0651" y1="56.4593" x2="242.3151" y2="37.3093" gradientTransform="matrix(0.9205 0 0 -0.9205 -23.5749 243.3216)">
	<stop  offset="1.000000e-02" style="stop-color:#000000"/>
	<stop  offset="0.12" style="stop-color:#000000;stop-opacity:0.75"/>
	<stop  offset="1" style="stop-color:#000000;stop-opacity:0"/>
</linearGradient>
<path class="st3" d="M182.5,202.2c0.8,1.1,1.9,2.1,3,2.9c1.7,0.9,3.6,1.5,5.5,1.6l29.4,4.4c0.3,0,0.6,0.1,0.8,0.3
	c0.3,0.4,0.5,0.8,0.4,1.3c0.1,5.5-0.6,11-2.2,16.3c-0.1,0.4-0.3,0.8-0.6,1.1c-0.4,0.3-0.9,0.4-1.3,0.4c-9.9,0.8-19.8,0.6-29.7,0.3
	c-1.7,0-3.3-0.2-5-0.5c-2.8-0.8-5-2.7-7.1-4.6c-4.5-4.2-22.5-20.8-23.6-23.1c-1.5-3.2-2.6-6.6-3.5-10.1c-0.9-3.3,5.8-3.7,5.7-7.2
	c-0.1-2.4,0.2-4.8,0.8-7.1c0.5-2,1.5-3.9,2.9-5.4c1-0.9-0.6-7.2,0.8-7.2c1.6,5.5,8.9,16.6,12.1,21.3
	C174.6,192.3,178.4,197.4,182.5,202.2z"/>
<path class="st2" d="M108.1,155.6c-2,1.8-3.8,3.7-5.5,5.7c-4.1,5-6.8,10.9-9.3,16.9c-6.7,15.8-12.6,32.7-10.8,49.7
	c0,1,0.3,2,0.8,2.9c0.8,1,1.9,1.7,3.2,2c3.2,1,6.7,1.1,10.1,1.1c13.3,0.1,26.5,0.2,39.8-0.4c2.1-0.1,4.2-0.3,5.9-1.4
	c1.2-1,2.2-2.2,2.9-3.6c3.6-6.7,4.6-14.5,7.4-21.5c3.7-9.2,13.8-17.6,11.7-27.3C155.1,138.6,112.3,151.8,108.1,155.6z"/>
<linearGradient id="SVGID_2_" gradientUnits="userSpaceOnUse" x1="166.5649" y1="1.0445" x2="151.3149" y2="93.0145" gradientTransform="matrix(0.9205 0 0 -0.9205 -23.5749 243.3216)">
	<stop  offset="1.000000e-02" style="stop-color:#000000"/>
	<stop  offset="0.12" style="stop-color:#000000;stop-opacity:0.75"/>
	<stop  offset="1" style="stop-color:#000000;stop-opacity:0"/>
</linearGradient>
<path class="st4" d="M108.1,155.6c-2,1.8-3.8,3.7-5.5,5.7c-4.1,5-6.8,10.9-9.3,16.9c-6.7,15.8-12.6,32.7-10.8,49.7
	c0,1,0.3,2,0.8,2.9c0.8,1,1.9,1.7,3.2,2c3.2,1,6.7,1.1,10.1,1.1c13.3,0.1,26.5,0.2,39.8-0.4c2.1-0.1,4.2-0.3,5.9-1.4
	c1.2-1,2.2-2.2,2.9-3.6c3.6-6.7,4.6-14.5,7.4-21.5c3.7-9.2,13.8-17.6,11.7-27.3C155.1,138.6,112.3,151.8,108.1,155.6z"/>
<path class="st5" d="M168.1,121.5c-1.6,7.6-3.2,15.3-7.4,21.8c-1.5,2.6-3.7,4.8-6.4,6.3c-2.7,1.4-6.1,1.5-8.6-0.1
	c-1.3-0.8-2.6-2.1-4-1.5c-1,0.5-1.3,1.7-1.5,2.8c-0.3,2.6-0.3,5.3,0.1,8c0.2,0.7,0.2,1.5,0.1,2.3c-0.4,1.4-1.5,2.5-3,2.8
	c-1.4,0.2-2.9,0-4.2-0.7c-4.1-1.8-7-5.6-7.8-10c-0.2-1.5-0.3-2.9-0.3-4.4c-0.2-6.6-1.2-13.1-1-19.6c0.2-6.5,1.8-13.4,6.3-18.2
	c2.6-2.6,5.6-4.7,9-6.2c5-2.4,10.6-4.1,16.1-3.2c4.4,0.7,8.3,3.3,10.7,7.1C169.2,113,169.2,116.2,168.1,121.5z"/>
<path class="st6" d="M181.8,104.8c0.8-6.3-2.4-12.4-8.1-15.3c-2.4-1.2-5.2-1.7-7.8-2.4c-6.2-1.7-12.1-4.4-18.4-5s-13.6,1.6-16.4,7.4
	c-0.5,1-1,2.3-2.2,2.6c-0.6,0.1-1.2,0-1.8-0.2c-4.2-0.7-8,2.9-9.9,6.7c-3.1,6.2-3.2,13.5-2.6,20.4c0.6,6.4,2.2,13.3,7.4,17.2
	c0.5,0.4,1.3,0.7,1.7,0.3c0.2-0.2,0.4-0.5,0.4-0.9c0.5-2.4,0.7-4.9,0.6-7.4c-0.1-1.8-0.4-3.8,0.1-5.6s2-3.5,3.9-3.5
	c1.7,0,3.1,1.6,3.6,3.3c0.3,1.7,0.2,3.5-0.2,5.2c0.3,0.7,1.2-0.1,1.4-0.9c1.3-5.8,1.6-12.3,5.6-16.6c0.8,0.8,1.4,1.9,1.7,3
	c1.2-1.3,3.1-1.7,4.7-1.2c1.2,0.5,2.2,1.2,3.2,2.1C158.5,121.7,179.7,119.5,181.8,104.8z"/>
<path class="st2" d="M111,165c-3.1,2.2-4.6,6.2-4.7,10c-0.1,3.8,3.9,28,7.7,34.9c2.9,5.3,9.1,19.3,18.4,23.1
	c2.8,1.1,43.6,0.7,62.5-1.4c-0.1-4.5-0.3-9-0.6-13.4c0-0.6-0.2-1.2-0.5-1.6c-0.5-0.5-1.2-3.7-1.8-3.7c-11,0-22.2,3.4-33.2,3.7
	c-1.6,0.1-3.2,0-4.8-0.3c-1.3-0.3-2.5-0.8-3.7-1.5c-8.5-4.8-13.2-14.3-16.6-23.5c-2.5-7.1-4.6-14.5-8.3-21.1
	c-1.3-2.4-2.5-4.7-5.1-5.7C117.3,163.1,113.8,163,111,165z"/>
<linearGradient id="SVGID_3_" gradientUnits="userSpaceOnUse" x1="171.9758" y1="6.1683" x2="197.0957" y2="62.6983" gradientTransform="matrix(0.9205 0 0 -0.9205 -23.5749 243.3216)">
	<stop  offset="1.000000e-02" style="stop-color:#000000"/>
	<stop  offset="0.12" style="stop-color:#000000;stop-opacity:0.75"/>
	<stop  offset="1" style="stop-color:#000000;stop-opacity:0"/>
</linearGradient>
<path class="st7" d="M111,165c-3.1,2.2-4.6,6.2-4.7,10c-0.1,3.8,3.9,28,7.7,34.9c2.9,5.3,9.1,19.3,18.4,23.1
	c2.8,1.1,43.6,0.7,62.5-1.4c-0.1-4.5-0.3-9-0.6-13.4c0-0.6-0.2-1.2-0.5-1.6c-0.5-0.5-1.2-3.7-1.8-3.7c-11,0-22.2,3.4-33.2,3.7
	c-1.6,0.1-3.2,0-4.8-0.3c-1.3-0.3-2.5-0.8-3.7-1.5c-8.5-4.8-13.2-14.3-16.6-23.5c-2.5-7.1-4.6-14.5-8.3-21.1
	c-1.3-2.4-2.5-4.7-5.1-5.7C117.3,163.1,113.8,163,111,165z"/>
<path class="st5" d="M193.3,211.9c5.7-0.5,12.1,0.7,15.7,5.2c0.4,0.4,0.6,0.9,0.7,1.5c0,0.5-0.2,1-0.4,1.4
	c-2.1,3.6-6.8,4.4-10.7,5.8c-2,0.7-4,1.7-5.8,2.9c-1,0.8-2.2,1.4-3.5,1.7c-2.8,0.4-5.1-2.1-6.3-4.5c-1.4-2.8-3.7-8.4-0.9-11
	C184.4,212.8,190.5,212.2,193.3,211.9z"/>
<path class="st5" d="M240.8,210.5c1,0.6,1.9,1.4,2.6,2.3c0.7,1,0.8,2.3,0.2,3.3c-0.4,0.7-1,1.2-1.7,1.5c-5.1,3-11.3,3.6-16.5,6.4
	c-1.1,0.8-2.3,1.3-3.6,1.5c-1.5,0-3-0.6-3.9-1.8c-0.9-1.2-1.7-2.5-2.1-3.9C209.8,204.1,232.2,205,240.8,210.5z"/>
<path class="st8" d="M94.9,203.4h23.9l0,0V223c0,3.8-3.1,6.9-6.9,6.9h-10c-3.8,0-6.9-3.1-6.9-6.9V203.4L94.9,203.4z"/>
<path class="st9" d="M117.2,208.2h7.2c3.2,0,5.8,2.6,5.8,5.8v2.4c0,3.2-2.6,5.8-5.8,5.8l0,0h-7.2l0,0V208.2L117.2,208.2z"/>
<path class="st2" d="M62.2,229.5h323.1c2.8,0,5.1,2.3,5.1,5.1l0,0c0,2.8-2.3,5.1-5.1,5.1H62.2c-2.8,0-5.1-2.3-5.1-5.1l0,0
	C57.1,231.8,59.4,229.5,62.2,229.5z"/>
<rect x="143.3" y="239.9" class="st2" width="182.6" height="63.3"/>
<rect x="72.8" y="239.9" class="st2" width="71.7" height="63.3"/>
<linearGradient id="SVGID_4_" gradientUnits="userSpaceOnUse" x1="300.6115" y1="64.0015" x2="257.5515" y2="-80.6784" gradientTransform="matrix(0.9205 0 0 -0.9205 -19.0734 255.0863)">
	<stop  offset="1.000000e-02" style="stop-color:#000000"/>
	<stop  offset="0.12" style="stop-color:#000000;stop-opacity:0.75"/>
	<stop  offset="1" style="stop-color:#000000;stop-opacity:0"/>
</linearGradient>
<rect x="144.5" y="239.9" class="st10" width="181.4" height="63.3"/>
<linearGradient id="SVGID_5_" gradientUnits="userSpaceOnUse" x1="122.9404" y1="57.1421" x2="164.6604" y2="-140.7079" gradientTransform="matrix(0.9205 0 0 -0.9205 -19.0734 255.0863)">
	<stop  offset="1.000000e-02" style="stop-color:#000000"/>
	<stop  offset="0.12" style="stop-color:#000000;stop-opacity:0.75"/>
	<stop  offset="1" style="stop-color:#000000;stop-opacity:0"/>
</linearGradient>
<rect x="72.8" y="239.9" class="st11" width="71.7" height="63.3"/>
<path class="st1" d="M389.9,19.6v40.3h-341V19.6c0-4.6,3.7-8.3,8.2-8.3h324.5C386.2,11.3,389.9,15,389.9,19.6z"/>
<path class="st2" d="M314.3,229.3H196.1c-3.3,0-6-2.7-6-6l0,0c0-3.3,2.7-6,6-6h118.2c3.3,0,6,2.7,6,6l0,0
	C320.3,226.6,317.6,229.3,314.3,229.3z"/>
<linearGradient id="SVGID_6_" gradientUnits="userSpaceOnUse" x1="302.5455" y1="9.0421" x2="303.1355" y2="36.2621" gradientTransform="matrix(0.9205 0 0 -0.9205 -23.5749 243.3124)">
	<stop  offset="1.000000e-02" style="stop-color:#000000"/>
	<stop  offset="0.12" style="stop-color:#000000;stop-opacity:0.75"/>
	<stop  offset="1" style="stop-color:#000000;stop-opacity:0"/>
</linearGradient>
<path class="st12" d="M314.3,229.3H196.1c-3.3,0-6-2.7-6-6l0,0c0-3.3,2.7-6,6-6h118.2c3.3,0,6,2.7,6,6l0,0
	C320.3,226.6,317.6,229.3,314.3,229.3z"/>
<path class="st2" d="M237.1,229.4h90.7l23.9-60.7c1.1-2.7-0.3-5.8-3-6.9c-0.6-0.2-1.3-0.4-1.9-0.4h-71.2c-7,0-13.4,4.3-16,10.9
	L237.1,229.4z"/>
<path class="st2" d="M241.7,229.4h86.2l22.7-57.7c1-2.6-0.2-5.5-2.8-6.6c-0.6-0.2-1.2-0.4-1.9-0.4h-67.6c-6.7,0-12.7,4.1-15.2,10.3
	L241.7,229.4z"/>
<linearGradient id="SVGID_7_" gradientUnits="userSpaceOnUse" x1="345.3201" y1="-7.768" x2="349.3601" y2="94.522" gradientTransform="matrix(0.9205 0 0 -0.9205 -23.5749 243.3216)">
	<stop  offset="1.000000e-02" style="stop-color:#000000"/>
	<stop  offset="0.12" style="stop-color:#000000;stop-opacity:0.75"/>
	<stop  offset="1" style="stop-color:#000000;stop-opacity:0"/>
</linearGradient>
<path class="st13" d="M241.7,229.4h86.2l22.7-57.7c1-2.6-0.2-5.5-2.8-6.6c-0.6-0.2-1.2-0.4-1.9-0.4h-67.6c-6.7,0-12.7,4.1-15.2,10.3
	L241.7,229.4z"/>
<rect x="211.7" y="142.3" class="st14" width="127.6" height="7.2"/>
<rect x="211.7" y="130" class="st8" width="90.7" height="7.2"/>
<rect x="314.8" y="130" class="st8" width="60.7" height="7.2"/>
<rect x="281.9" y="84.6" class="st8" width="93.4" height="6.4"/>
<rect x="262.4" y="95.9" class="st14" width="99.9" height="6.4"/>
<rect x="213.4" y="84.6" class="st8" width="61.4" height="6.4"/>
<rect x="240.3" y="106.9" class="st8" width="134.9" height="6.4"/>
<rect x="213.4" y="106.9" class="st14" width="19.8" height="6.4"/>
<rect x="286.2" y="118.2" class="st14" width="89.1" height="6.4"/>
<rect x="213.4" y="118.2" class="st8" width="61.4" height="6.4"/>
<rect x="213.4" y="95.6" class="st8" width="39.5" height="6.4"/>
<rect x="247.8" y="63.1" class="st8" width="93.4" height="6.4"/>
<rect x="228.2" y="74.4" class="st14" width="99.9" height="6.4"/>
<rect x="179.3" y="63.1" class="st8" width="61.4" height="6.4"/>
<rect x="246.9" y="49.9" class="st8" width="93.4" height="6.4"/>
<rect x="178.4" y="37.9" class="st8" width="61.4" height="6.4"/>
<rect x="178.4" y="27" class="st8" width="61.4" height="6.4"/>
<rect x="179.3" y="74.2" class="st8" width="39.5" height="6.4"/>
</svg>
